<?xml version="1.0" encoding="UTF-8" standalone="no"?>
<svg
   xmlns:dc="http://purl.org/dc/elements/1.1/"
   xmlns:cc="http://creativecommons.org/ns#"
   xmlns:rdf="http://www.w3.org/1999/02/22-rdf-syntax-ns#"
   xmlns:svg="http://www.w3.org/2000/svg"
   xmlns="http://www.w3.org/2000/svg"
   viewBox="0 0 500 500"
   height="500"
   width="500"
   xml:space="preserve"
   id="svg2"
   version="1.1"><metadata
     id="metadata8"><rdf:RDF><cc:Work
         rdf:about=""><dc:format>image/svg+xml</dc:format><dc:type
           rdf:resource="http://purl.org/dc/dcmitype/StillImage" /></cc:Work></rdf:RDF></metadata><defs
     id="defs6"><clipPath
       id="clipPath14"
       clipPathUnits="userSpaceOnUse"><path
         id="path12"
         d="M 0,8.039989 H 375 V 383.03998 H 0 Z" /></clipPath><clipPath
       id="clipPath24"
       clipPathUnits="userSpaceOnUse"><path
         style="clip-rule:evenodd"
         id="path22"
         d="M 0,0 H 1562.5 V 1562.5 H 0 Z" /></clipPath><clipPath
       id="clipPath36"
       clipPathUnits="userSpaceOnUse"><path
         style="clip-rule:evenodd"
         id="path34"
         d="M 0,0 H 1562.5 V 1562.5 H 0 Z" /></clipPath><clipPath
       id="clipPath48"
       clipPathUnits="userSpaceOnUse"><path
         id="path46"
         d="M 0,0 H 1562.5 V 1562.5 H 0 Z" /></clipPath><clipPath
       id="clipPath54"
       clipPathUnits="userSpaceOnUse"><path
         id="path52"
         d="M 0,0 H 1562.5 V 1562.5 H 0 Z" /></clipPath><clipPath
       id="clipPath60"
       clipPathUnits="userSpaceOnUse"><path
         id="path58"
         d="m 546.875,490.65051 h 468.75 v 468.75 h -468.75 z" /></clipPath><clipPath
       id="clipPath66"
       clipPathUnits="userSpaceOnUse"><path
         id="path64"
         d="m 781.25,490.65051 c -129.44171,0 -234.375,104.93329 -234.375,234.375 0,129.44178 104.93329,234.375 234.375,234.375 129.44177,0 234.375,-104.93322 234.375,-234.375 0,-129.44171 -104.93323,-234.375 -234.375,-234.375 z" /></clipPath><clipPath
       id="clipPath74"
       clipPathUnits="userSpaceOnUse"><path
         id="path72"
         d="M 0,0 H 470 V 470 H 0 Z" /></clipPath><clipPath
       id="clipPath90"
       clipPathUnits="userSpaceOnUse"><path
         style="clip-rule:evenodd"
         id="path88"
         d="m 541.47723,265.17059 h 478.12497 v 625 H 541.47723 Z" /></clipPath><clipPath
       id="clipPath108"
       clipPathUnits="userSpaceOnUse"><path
         style="clip-rule:evenodd"
         id="path106"
         d="M 0,0 H 1562.5 V 1562.5 H 0 Z" /></clipPath></defs><g
     clip-path="url(#clipPath14)"
     transform="matrix(1.3333333,0,0,-1.3333333,0,510.71997)"
     id="g10"><g
       transform="matrix(0.23999999,0,0,-0.23999999,0,383.03998)"
       id="g16"><g
         id="g18"><g
           clip-path="url(#clipPath24)"
           id="g20"><g
             transform="scale(3.125)"
             id="g26"><path
               id="path28"
               style="fill:#ffffff;fill-opacity:1;fill-rule:nonzero;stroke:none"
               d="M 0,0 H 500 V 500 H 0 Z" /></g></g></g><g
         id="g30"><g
           clip-path="url(#clipPath36)"
           id="g32"><g
             transform="scale(3.125)"
             id="g38"><path
               id="path40"
               style="fill:#ffffff;fill-opacity:1;fill-rule:nonzero;stroke:none"
               d="M 0,0 H 500 V 500 H 0 Z" /></g></g></g><g
         id="g42"><g
           clip-path="url(#clipPath48)"
           id="g44"><g
             clip-path="url(#clipPath54)"
             id="g50"><g
               clip-path="url(#clipPath60)"
               id="g56"><g
                 clip-path="url(#clipPath66)"
                 id="g62"><g
                   transform="translate(546,490)"
                   id="g68"><g
                     id="g70" /><g
                     id="g82"><g
                       id="g80"
                       clip-path="url(#clipPath74)"><g
                         id="g78"
                         transform="matrix(1.8310547,0,0,1.8310547,0.875,0.6505127)"><path
                           id="path76"
                           style="fill:#e151af;fill-opacity:1;fill-rule:nonzero;stroke:none"
                           d="M 0,0 H 256 V 256 H 0 Z" /></g></g></g></g></g></g></g></g></g><g
         id="g84"><g
           clip-path="url(#clipPath90)"
           id="g86"><g
             transform="matrix(1.7552744,0,0,1.7552744,362.2637,98.480652)"
             id="g92"><path
               id="path94"
               style="fill:#331424;fill-opacity:1;fill-rule:nonzero;stroke:none"
               d="m 251.7,133.2 c -12.80001,-2 -36.90001,-2.10001 -44.59999,-1.10001 l -4,24.5 c 10.89999,-1.8 25.89999,-1.60001 42.1,1 16.20001,2.7 30.5,7.3 40.20001,12.5 l 4.4,-26.8 40.5,-7.2 L 255.5,95 l -84,15 34.8,19.10001 C 226.10001,126.5 251.7,133.2 251.7,133.2 Z" /><path
               id="path96"
               style="fill:#331424;fill-opacity:1;fill-rule:nonzero;stroke:none"
               d="m 250.3,451 c 0,0 10.30001,-209.2 116.30001,-254 0,0 -52.70002,-16.39999 -145.30001,99.60001 -29.89999,-23.9 -47,-67.30001 -53.8,-126.4 C 167.39999,170.2 102.1,346 250.3,451 Z" /><path
               id="path98"
               style="fill:#331424;fill-opacity:1;fill-rule:nonzero;stroke:none"
               d="m 196.3,203.5 c 0,22.2 18,40.3 40.30001,40.3 22.29998,0 40.29998,-18 40.29998,-40.3 0,-22.3 -18,-40.3 -40.3,-40.3 C 214.3,163.2 196.3,181.3 196.3,203.5 Z" /><path
               id="path100"
               style="fill:#331424;fill-opacity:1;fill-rule:nonzero;stroke:none"
               d="m 259.79999,451 32.6,-74.89999 c 2.70002,40.5 21.29999,74.89999 21.29999,74.89999 -17.70001,-179.39999 61.60001,-247.5 61.60001,-247.5 -105.4,55.79999 -115.5,247.5 -115.5,247.5 z" /></g></g></g><g
         id="g102"><g
           clip-path="url(#clipPath108)"
           id="g104"><g
             transform="matrix(2.408767,1.9908456,-1.9908456,2.408767,535.87939,909.55927)"
             id="g110"><text
               id="text114"
               style="font-variant:normal;font-weight:bold;font-size:48px;font-family:LeagueSpartan;-inkscape-font-specification:LeagueSpartan-Bold;writing-mode:lr-tb;fill:#331424;fill-opacity:1;fill-rule:nonzero;stroke:none"
               transform="translate(0,41)"><tspan
                 id="tspan112"
                 y="0"
                 x="0">Q</tspan></text>
</g><g
             transform="matrix(2.8935916,1.1801491,-1.1801491,2.8935916,614.2843,977.73206)"
             id="g116"><text
               id="text120"
               style="font-variant:normal;font-weight:bold;font-size:48px;font-family:LeagueSpartan;-inkscape-font-specification:LeagueSpartan-Bold;writing-mode:lr-tb;fill:#331424;fill-opacity:1;fill-rule:nonzero;stroke:none"
               transform="translate(0,41)"><tspan
                 id="tspan118"
                 y="0"
                 x="0">U</tspan></text>
</g><g
             transform="matrix(3.0692892,0.58744287,-0.58744287,3.0692892,701.71844,1011.7906)"
             id="g122"><text
               id="text126"
               style="font-variant:normal;font-weight:bold;font-size:48px;font-family:LeagueSpartan;-inkscape-font-specification:LeagueSpartan-Bold;writing-mode:lr-tb;fill:#331424;fill-opacity:1;fill-rule:nonzero;stroke:none"
               transform="translate(0,41)"><tspan
                 id="tspan124"
                 y="0"
                 x="0">I</tspan></text>
</g><g
             transform="matrix(3.1247046,-0.04296664,0.04296664,3.1247046,728.90985,1022.3952)"
             id="g128"><text
               id="text132"
               style="font-variant:normal;font-weight:bold;font-size:48px;font-family:LeagueSpartan;-inkscape-font-specification:LeagueSpartan-Bold;writing-mode:lr-tb;fill:#331424;fill-opacity:1;fill-rule:nonzero;stroke:none"
               transform="translate(0,41)"><tspan
                 id="tspan130"
                 y="0"
                 x="0">Z</tspan></text>
</g><g
             transform="matrix(2.9822345,-0.93375695,0.93375695,2.9822345,819.39276,1024.7892)"
             id="g134"><text
               id="text138"
               style="font-variant:normal;font-weight:bold;font-size:48px;font-family:LeagueSpartan;-inkscape-font-specification:LeagueSpartan-Bold;writing-mode:lr-tb;fill:#331424;fill-opacity:1;fill-rule:nonzero;stroke:none"
               transform="translate(0,41)"><tspan
                 id="tspan136"
                 y="0"
                 x="0">Z</tspan></text>
</g><g
             transform="matrix(2.7329619,-1.5154356,1.5154356,2.7329619,911.59991,994.17877)"
             id="g140"><text
               id="text144"
               style="font-variant:normal;font-weight:bold;font-size:48px;font-family:LeagueSpartan;-inkscape-font-specification:LeagueSpartan-Bold;writing-mode:lr-tb;fill:#331424;fill-opacity:1;fill-rule:nonzero;stroke:none"
               transform="translate(0,41)"><tspan
                 id="tspan142"
                 y="0"
                 x="0">I</tspan></text>
</g><g
             transform="matrix(2.3716104,-2.0349665,2.0349665,2.3716104,939.27057,984.89667)"
             id="g146"><text
               id="text150"
               style="font-variant:normal;font-weight:bold;font-size:48px;font-family:LeagueSpartan;-inkscape-font-specification:LeagueSpartan-Bold;writing-mode:lr-tb;fill:#331424;fill-opacity:1;fill-rule:nonzero;stroke:none"
               transform="translate(0,41)"><tspan
                 id="tspan148"
                 y="0"
                 x="0">Z</tspan></text>
</g></g></g></g><path
       id="path152"
       style="fill:#000000;fill-opacity:0;fill-rule:nonzero;stroke:none"
       d="m 129.95454,169.39905 h 115.09091 v 150 H 129.95454 Z" /></g></svg>